<?xml version="1.0" encoding="UTF-8"?>
<svg width="512" height="512" viewBox="0 0 512 512" xmlns="http://www.w3.org/2000/svg">
  <!-- Background circle -->
  <circle cx="256" cy="256" r="240" fill="#2563eb" stroke="#1d4ed8" stroke-width="8"/>
  
  <!-- Currency symbols -->
  <!-- Dollar symbol -->
  <g transform="translate(180, 180)">
    <rect x="18" y="0" width="12" height="80" fill="white"/>
    <rect x="0" y="20" width="48" height="12" fill="white"/>
    <rect x="0" y="48" width="48" height="12" fill="white"/>
  </g>
  
  <!-- Euro symbol -->
  <g transform="translate(300, 200)">
    <path d="M 30 0 C 45 0 60 15 60 30 C 60 45 45 60 30 60 C 15 60 0 45 0 30 C 0 15 15 0 30 0 Z" fill="none" stroke="white" stroke-width="8"/>
    <rect x="0" y="20" width="40" height="8" fill="white"/>
    <rect x="0" y="32" width="40" height="8" fill="white"/>
  </g>
  
  <!-- Conversion arrows -->
  <g transform="translate(240, 320)">
    <!-- Right arrow -->
    <polygon points="0,0 20,8 0,16" fill="white"/>
    <rect x="20" y="6" width="30" height="4" fill="white"/>
    
    <!-- Left arrow -->
    <g transform="translate(0, 24)">
      <polygon points="50,0 30,8 50,16" fill="white"/>
      <rect x="0" y="6" width="30" height="4" fill="white"/>
    </g>
  </g>
  
  <!-- Additional currency symbol -->
  <g transform="translate(220, 140)">
    <!-- Yen/Yuan symbol -->
    <rect x="32" y="0" width="8" height="80" fill="white"/>
    <polygon points="0,0 32,40 40,40 72,0 60,0 40,25 20,0" fill="white"/>
    <rect x="16" y="35" width="40" height="6" fill="white"/>
    <rect x="16" y="45" width="40" height="6" fill="white"/>
  </g>
</svg>